<svg xmlns="http://www.w3.org/2000/svg" viewBox="0 0 64 64" width="256" height="256">
<rect width="64" height="64" rx="16" fill="#16281f"/>
<g fill="#5aa76a">
<path d="M32 40C22 34 18 24 20 16c8 4 12 14 12 24z"/>
<path d="M32 40c10-6 14-16 12-24-8 4-12 14-12 24z" opacity=".85"/>
<path d="M32 40c-6-10-4-20 0-26 4 6 6 16 0 26z" opacity=".7"/>
</g>
<path d="M31 26h2v16h-2z" fill="#5b4a2e"/>
<path d="M22 42h20l-4 14H26z" fill="#b5754a"/>
<path d="M22 42h20l-1 3H23z" fill="#c98a5c"/>
<circle cx="46" cy="16" r="5" fill="#ffd98a" opacity=".9"/>
</svg>