<svg xmlns="http://www.w3.org/2000/svg" viewBox="0 0 64 64" width="256" height="256">
<rect width="64" height="64" rx="16" fill="#463a40"/>
<!-- stjerner -->
<circle cx="14" cy="14" r="1.3" fill="#fafbfc" opacity=".8"/>
<circle cx="26" cy="10" r="1" fill="#fafbfc" opacity=".8"/>
<circle cx="46" cy="16" r="1.4" fill="#fafbfc" opacity=".8"/>
<circle cx="38" cy="22" r=".9" fill="#fafbfc" opacity=".8"/>
<circle cx="52" cy="26" r="1.1" fill="#fafbfc" opacity=".8"/>
<!-- solbanen, stiplet -->
<path d="M10 44 A24 24 0 0 1 54 44" fill="none" stroke="#fafbfc" stroke-width="1.6"
      stroke-dasharray="1.5 3.5" stroke-linecap="round" opacity=".35"/>
<!-- horisonten -->
<path d="M6 44 h52" stroke="#fafbfc" stroke-width="2" stroke-linecap="round" opacity=".45"/>
<!-- sola halvveis under: det er denne solhøyden kortet viser -->
<path d="M41 44 a5 5 0 0 0 10 0 z" fill="#f0be82"/>
<!-- huset med lysende vindu -->
<path d="M14 44 L24 34 L34 44 z" fill="#fafbfc" opacity=".25"/>
<rect x="16" y="44" width="16" height="12" fill="#fafbfc" opacity=".16"/>
<rect x="20" y="47" width="6" height="5" rx="1" fill="#f0d682"/>
<!-- utelampa på veggen, med lyskjegle ned -->
<path d="M36 42 L32.5 56 h7 z" fill="#f0d682" opacity=".28"/>
<circle cx="36" cy="41" r="1.8" fill="#f0d682"/>
</svg>
